<svg width="22" height="26" viewBox="0 0 22 26" fill="none" xmlns="http://www.w3.org/2000/svg">
<path d="M20.4586 19.9874L11.4861 25.3675C11.2312 25.5198 10.9423 25.6 10.6483 25.6C10.3542 25.6 10.0653 25.5198 9.81048 25.3675L0.837904 19.9873C0.583506 19.8342 0.372248 19.6144 0.225229 19.3499C0.0782108 19.0854 0.000579834 18.7855 8.96454e-05 18.4801V7.71978C0.000574112 7.41439 0.0782013 7.11448 0.225222 6.85001C0.37224 6.58553 0.583502 6.36575 0.837904 6.21262L9.81042 0.832411C10.0653 0.680124 10.3542 0.599976 10.6482 0.599976C10.9423 0.599976 11.2312 0.680124 11.4861 0.832411L20.4586 6.21262C20.713 6.36574 20.9242 6.58552 21.0713 6.85C21.2183 7.11447 21.2959 7.41439 21.2964 7.71978V18.4802C21.2959 18.7856 21.2183 19.0855 21.0713 19.35C20.9242 19.6145 20.713 19.8342 20.4586 19.9874ZM9.81048 2.84197L1.67577 7.71978V17.3664L9.81048 12.5911V2.84197ZM10.651 14.0967L2.42179 18.9276L10.6481 23.8602L18.8774 18.9259L10.651 14.0967ZM19.6208 7.71978L11.4861 2.84197V12.5877L19.6208 17.3632V7.71978Z" fill="white"/>
</svg>
