<svg width="20" height="21" viewBox="0 0 20 21" fill="none" xmlns="http://www.w3.org/2000/svg">
<path d="M6.92713 9.61855L9.51744 7.02144L7.18798 4.68518L5.87581 5.99734L5.07287 5.19552L6.37936 3.88223L4.16558 1.66845L1.56847 4.26556L6.92713 9.61855ZM15.8117 18.51L18.4088 15.9128L16.1962 13.6991L14.8829 15.0056L14.08 14.2026L15.3864 12.8893L13.0729 10.5825L10.4814 13.1728L15.8117 18.51ZM14.2126 3.9412L16.1724 5.89981L18.1525 3.91965L16.1871 1.95424L14.2138 3.9412H14.2126ZM4.71222 18.9659H1.13411V15.3889L6.11738 10.4056L0 4.26556L4.16558 0.0999756L10.334 6.24684L16.237 0.33587L19.7358 3.9344L13.9042 9.79433L20 15.9344L15.8344 20.1L9.69436 13.9826L4.71109 18.9659H4.71222Z" fill="white"/>
</svg>
