<svg width="21" height="25" viewBox="0 0 21 25" fill="none" xmlns="http://www.w3.org/2000/svg">
<path id="Vector" d="M9.37198 2.49988C7.29573 2.49988 6.23923 2.71111 5.26673 3.20609C4.45569 3.61251 3.79308 4.24357 3.36635 5.016C2.84663 5.94095 2.62484 6.9484 2.62484 8.92455V16.0717C2.62484 18.0491 2.84663 19.0553 3.36635 19.9815C3.80864 20.769 4.43991 21.3714 5.26673 21.7914C6.23792 22.2864 7.29573 22.4976 9.37198 22.4976H11.6267C13.703 22.4976 14.7595 22.2864 15.732 21.7914C16.543 21.3851 17.2057 20.754 17.6323 19.9815C18.1521 19.0565 18.3739 18.0491 18.3739 16.0717V8.92455C18.3739 6.94715 18.1521 5.94095 17.6323 5.01475C17.2057 4.24227 16.543 3.61119 15.732 3.20484C14.7608 2.71111 13.703 2.49988 11.628 2.49988H9.37198ZM9.37198 0H11.6267C14.2699 0 15.6873 0.347483 16.9696 1.0012C18.2389 1.64046 19.277 2.62866 19.9488 3.83731C20.6338 5.05975 21 6.40968 21 8.92705V16.0742C21 18.5916 20.6338 19.9415 19.9488 21.1627C19.277 22.3713 18.2389 23.3595 16.9696 23.9988C15.6873 24.6513 14.2699 25 11.6267 25H9.37066C6.72746 25 5.31004 24.6513 4.0265 23.9988C2.75811 23.3591 1.72101 22.371 1.04993 21.1627C0.364852 19.9403 0 18.5903 0 16.0742V8.92455C0 6.40718 0.364852 5.05725 1.05125 3.83481C1.72309 2.62727 2.76063 1.64 4.02912 1.0012C5.31136 0.347483 6.72877 0 9.37198 0ZM9.18693 4.99975H11.8118V11.2494H9.18693V4.99975Z" fill="white"/>
</svg>
