<svg width="21" height="22" viewBox="0 0 21 22" fill="none" xmlns="http://www.w3.org/2000/svg">
<path d="M6.5025 4.19875L4.0025 5.59875L5.4025 3.09875L4.0025 0.598755L6.5025 1.99875L9.0025 0.598755L7.6025 3.09875L9.0025 5.59875L6.5025 4.19875ZM18.5025 13.9988L21.0025 12.5988L19.6025 15.0988L21.0025 17.5988L18.5025 16.1988L16.0025 17.5988L17.4025 15.0988L16.0025 12.5988L18.5025 13.9988ZM21.0025 0.598755L19.6025 3.09875L21.0025 5.59875L18.5025 4.19875L16.0025 5.59875L17.4025 3.09875L16.0025 0.598755L18.5025 1.99875L21.0025 0.598755ZM12.3425 11.3788L14.7825 8.93876L12.6625 6.81876L10.2225 9.25875L12.3425 11.3788ZM13.3725 5.88875L15.7125 8.22875C16.1025 8.59875 16.1025 9.24875 15.7125 9.63875L4.0425 21.3088C3.6525 21.6988 3.0025 21.6988 2.6325 21.3088L0.2925 18.9688C-0.0975 18.5988 -0.0975 17.9488 0.2925 17.5588L11.9625 5.88875C12.3525 5.49875 13.0025 5.49875 13.3725 5.88875Z" fill="white"/>
</svg>
